<svg width="29" height="44" viewBox="0 0 29 44" fill="none" xmlns="http://www.w3.org/2000/svg">
<path fill-rule="evenodd" clip-rule="evenodd" d="M14.5 44C14.5 44 29 28.6 29 14.6667C29 6.56649 22.5081 0 14.5 0C6.49187 0 0 6.56649 0 14.6667C0 28.6 14.5 44 14.5 44Z" fill="#E92B25"/>
<circle cx="14.5" cy="15.5" r="11.5" fill="white"/>
<path d="M13.4805 16.2754H11.1602V17.9805H14.2803V18.8945H6.95898V17.9805H10.0439V16.2754H7.82031V12.373H13.4189V13.2695H8.94531V15.3877H13.4805V16.2754ZM17.6816 13.5332C17.6846 13.8203 17.7534 14.0972 17.8882 14.3638C18.0229 14.6304 18.231 14.8706 18.5122 15.0845C18.7935 15.2954 19.1436 15.4551 19.5625 15.5635L19.0439 16.4512C18.6016 16.3311 18.2192 16.1479 17.897 15.9019C17.5776 15.6528 17.3242 15.3584 17.1367 15.0186C16.9551 15.3936 16.7031 15.7158 16.3809 15.9854C16.0586 16.252 15.6689 16.4512 15.2119 16.583L14.6758 15.7041C15.0918 15.5898 15.4404 15.4214 15.7217 15.1987C16.0059 14.9731 16.2168 14.7168 16.3545 14.4297C16.4951 14.1396 16.5654 13.8408 16.5654 13.5332H14.957V12.6455H16.5654V11.7842H17.6992V12.6455H19.2988V13.5332H17.6816ZM15.6953 17.04H21.083V19.8174H19.958V17.9365H15.6953V17.04ZM19.958 11.8105H21.083V13.7793H22.1641V14.7197H21.083V16.7148H19.958V11.8105Z" fill="black"/>
</svg>
