<svg width="29" height="44" viewBox="0 0 29 44" fill="none" xmlns="http://www.w3.org/2000/svg">
<path fill-rule="evenodd" clip-rule="evenodd" d="M14.5 44C14.5 44 29 28.6 29 14.6667C29 6.56649 22.5081 0 14.5 0C6.49187 0 0 6.56649 0 14.6667C0 28.6 14.5 44 14.5 44Z" fill="#E92B25"/>
<circle cx="14.5" cy="15.5" r="11.5" fill="white"/>
<path d="M10.0703 13.6211C10.0674 14.1221 10.1421 14.6055 10.2944 15.0713C10.4468 15.5371 10.6753 15.9517 10.98 16.3149C11.2847 16.6782 11.6553 16.9521 12.0918 17.1367L11.4326 18.0332C10.9873 17.8311 10.6035 17.541 10.2812 17.1631C9.96191 16.7852 9.7085 16.3413 9.521 15.8315C9.33643 16.3882 9.07715 16.873 8.74316 17.2861C8.40918 17.6963 8.00488 18.0098 7.53027 18.2266L6.85352 17.2949C7.30469 17.1045 7.68555 16.8218 7.99609 16.4468C8.30957 16.0688 8.54395 15.6367 8.69922 15.1504C8.85449 14.6611 8.93359 14.1514 8.93652 13.6211V12.4258H10.0703V13.6211ZM12.5225 11.8105H13.6562V19.8262H12.5225V11.8105ZM19.2812 13.1729H17.6904C17.6934 13.498 17.7607 13.8115 17.8926 14.1133C18.0273 14.4121 18.2339 14.6831 18.5122 14.9263C18.7905 15.1665 19.1377 15.3525 19.5537 15.4844L18.9824 16.3545C18.5488 16.2139 18.1768 16.0088 17.8662 15.7393C17.5586 15.4668 17.3154 15.1475 17.1367 14.7812C16.9521 15.1826 16.6973 15.5312 16.3721 15.8271C16.0498 16.1201 15.6631 16.3398 15.2119 16.4863L14.6143 15.625C15.0391 15.4873 15.3965 15.291 15.6865 15.0361C15.9766 14.7812 16.1919 14.4927 16.3325 14.1704C16.4761 13.8481 16.5508 13.5156 16.5566 13.1729H14.9219V12.2764H19.2812V13.1729ZM15.6953 16.9785H21.083V19.8086H19.958V17.8662H15.6953V16.9785ZM19.958 11.8105H21.083V13.7529H22.1641V14.6846H21.083V16.6357H19.958V11.8105Z" fill="black"/>
</svg>
