<svg width="82" height="17" viewBox="0 0 82 17" fill="none" xmlns="http://www.w3.org/2000/svg">
<path d="M6.48438 4.99805C6.48438 5.92383 6.66309 6.83789 7.02051 7.74023C7.38379 8.64258 7.87598 9.44531 8.49707 10.1484C9.12402 10.8457 9.8125 11.3672 10.5625 11.7129L9.73633 12.8379C8.8457 12.3809 8.05176 11.7129 7.35449 10.834C6.66309 9.94922 6.14453 8.9502 5.79883 7.83691C5.44727 9.01465 4.92285 10.0723 4.22559 11.0098C3.53418 11.9473 2.74609 12.6504 1.86133 13.1191L0.964844 12.0117C1.7207 11.6426 2.41211 11.0889 3.03906 10.3506C3.66602 9.60645 4.16113 8.76562 4.52441 7.82812C4.89355 6.88477 5.07812 5.94141 5.07812 4.99805V2.15039H6.48438V4.99805ZM8.85742 6.14062H12.5664V0.796875H13.9375V16.459H12.5664V7.26562H8.85742V6.14062ZM29.4238 16.459H28.0352V0.796875H29.4238V16.459ZM17.4531 2.13281H18.8242V6.26367H23.4824V2.13281H24.8359V12.6797H17.4531V2.13281ZM23.4824 11.5195V7.37109H18.8242V11.5195H23.4824ZM39.8828 3.09961C39.8828 3.95508 40.1699 4.77832 40.7441 5.56934C41.3184 6.36035 42.0508 7.03418 42.9414 7.59082C43.8379 8.1416 44.7461 8.50195 45.666 8.67188L45.0332 9.83203C44.2305 9.64453 43.4424 9.33984 42.6689 8.91797C41.9014 8.49609 41.21 7.97461 40.5947 7.35352C39.9795 6.73242 39.5078 6.05273 39.1797 5.31445C38.8516 6.05273 38.3799 6.73242 37.7646 7.35352C37.1494 7.96875 36.4551 8.49023 35.6816 8.91797C34.9141 9.33984 34.1289 9.64453 33.3262 9.83203L32.6934 8.67188C33.6133 8.49609 34.5156 8.13281 35.4004 7.58203C36.291 7.03125 37.0205 6.36035 37.5889 5.56934C38.1572 4.77832 38.4414 3.95508 38.4414 3.09961V1.9043H39.8828V3.09961ZM32.0957 13.1543H46.4043V14.2969H32.0957V13.1543ZM66.4785 14.4902H52.1699V13.3301H58.6035V10.377H53.9629V5.56055H63.3145V3.09961H53.9277V1.95703H64.668V6.68555H55.334V9.23438H65.0371V10.377H59.957V13.3301H66.4785V14.4902ZM80.2598 3.94336V4.13672C80.248 5.43164 80.207 6.58887 80.1367 7.6084C80.0723 8.62793 79.9199 9.80859 79.6797 11.1504L78.2734 10.9922C78.4551 10.0664 78.5869 9.19629 78.6689 8.38184C78.7568 7.56152 78.8096 6.83789 78.8271 6.21094C78.8506 5.58398 78.8652 4.82813 78.8711 3.94336V3.52148H69.2383V2.37891H80.2598V3.94336ZM67.7266 13.0664H73.3164V7.47656H74.6699V13.0664H81.9648V14.209H67.7266V13.0664Z" fill="url(#paint0_linear_1_301)"/>
<defs>
<linearGradient id="paint0_linear_1_301" x1="-1.83346e-07" y1="8" x2="83" y2="8" gradientUnits="userSpaceOnUse">
<stop stop-color="#E92B25"/>
<stop offset="1" stop-color="#263F81"/>
</linearGradient>
</defs>
</svg>
