<svg width="103" height="16" viewBox="0 0 103 16" fill="none" xmlns="http://www.w3.org/2000/svg">
<path d="M12.757 0.723999H16.591V15.07H12.847V7.906L9.91297 15.07H7.23097L4.29697 7.906V15.07H0.552969V0.723999H4.38697L8.56297 10.93L12.757 0.723999ZM18.1754 9.76C18.1754 8.86 18.3374 8.032 18.6974 7.294C19.0214 6.574 19.4894 5.944 20.0834 5.422C20.6594 4.918 21.3254 4.54 22.1174 4.252C22.8734 4 23.7014 3.856 24.5834 3.856C25.4654 3.856 26.2934 4 27.0854 4.252C27.8594 4.54 28.5434 4.918 29.1194 5.422C29.6954 5.926 30.1454 6.556 30.4874 7.276C30.8114 8.014 30.9914 8.842 30.9914 9.742C30.9914 10.642 30.8114 11.452 30.4874 12.172C30.1454 12.91 29.6954 13.522 29.1194 14.044C28.5434 14.548 27.8594 14.926 27.0854 15.214C26.2934 15.466 25.4654 15.61 24.5834 15.61C23.7014 15.61 22.8734 15.466 22.1174 15.214C21.3254 14.926 20.6594 14.548 20.0834 14.044C19.4894 13.54 19.0214 12.928 18.6974 12.19C18.3374 11.47 18.1754 10.66 18.1754 9.76ZM24.5834 12.532C24.9794 12.532 25.3574 12.46 25.6994 12.316C26.0234 12.172 26.3114 11.974 26.5454 11.722C26.7614 11.488 26.9414 11.2 27.0854 10.858C27.1934 10.534 27.2654 10.156 27.2654 9.76C27.2654 9.364 27.1934 8.986 27.0854 8.626C26.9414 8.302 26.7614 7.996 26.5454 7.744C26.3114 7.492 26.0234 7.294 25.6994 7.15C25.3574 7.024 24.9794 6.952 24.5834 6.952C24.1514 6.952 23.7914 7.024 23.4674 7.168C23.1254 7.312 22.8374 7.51 22.6214 7.762C22.3694 8.014 22.1894 8.32 22.0814 8.644C21.9554 9.004 21.9014 9.364 21.9014 9.76C21.9014 10.156 21.9554 10.534 22.0814 10.858C22.1894 11.2 22.3694 11.488 22.6214 11.722C22.8374 11.974 23.1254 12.172 23.4674 12.316C23.7914 12.46 24.1514 12.532 24.5834 12.532ZM32.4137 9.76C32.4137 8.86 32.5757 8.032 32.9357 7.294C33.2597 6.574 33.7277 5.944 34.3217 5.422C34.8977 4.918 35.5637 4.54 36.3557 4.252C37.1117 4 37.9397 3.856 38.8217 3.856C39.7037 3.856 40.5317 4 41.3237 4.252C42.0977 4.54 42.7817 4.918 43.3577 5.422C43.9337 5.926 44.3837 6.556 44.7257 7.276C45.0497 8.014 45.2297 8.842 45.2297 9.742C45.2297 10.642 45.0497 11.452 44.7257 12.172C44.3837 12.91 43.9337 13.522 43.3577 14.044C42.7817 14.548 42.0977 14.926 41.3237 15.214C40.5317 15.466 39.7037 15.61 38.8217 15.61C37.9397 15.61 37.1117 15.466 36.3557 15.214C35.5637 14.926 34.8977 14.548 34.3217 14.044C33.7277 13.54 33.2597 12.928 32.9357 12.19C32.5757 11.47 32.4137 10.66 32.4137 9.76ZM38.8217 12.532C39.2177 12.532 39.5957 12.46 39.9377 12.316C40.2617 12.172 40.5497 11.974 40.7837 11.722C40.9997 11.488 41.1797 11.2 41.3237 10.858C41.4317 10.534 41.5037 10.156 41.5037 9.76C41.5037 9.364 41.4317 8.986 41.3237 8.626C41.1797 8.302 40.9997 7.996 40.7837 7.744C40.5497 7.492 40.2617 7.294 39.9377 7.15C39.5957 7.024 39.2177 6.952 38.8217 6.952C38.3897 6.952 38.0297 7.024 37.7057 7.168C37.3637 7.312 37.0757 7.51 36.8597 7.762C36.6077 8.014 36.4277 8.32 36.3197 8.644C36.1937 9.004 36.1397 9.364 36.1397 9.76C36.1397 10.156 36.1937 10.534 36.3197 10.858C36.4277 11.2 36.6077 11.488 36.8597 11.722C37.0757 11.974 37.3637 12.172 37.7057 12.316C38.0297 12.46 38.3897 12.532 38.8217 12.532ZM47.3635 0.723999H54.3115C55.2835 0.723999 56.1475 0.903999 56.9395 1.264C57.6955 1.642 58.3615 2.146 58.9015 2.776C59.4415 3.424 59.8555 4.162 60.1435 5.026C60.4135 5.908 60.5575 6.862 60.5575 7.87C60.5575 8.932 60.3955 9.904 60.1075 10.768C59.7835 11.668 59.3335 12.424 58.7575 13.054C58.1455 13.684 57.4255 14.188 56.5615 14.548C55.6795 14.89 54.6715 15.07 53.5375 15.07H47.3635V0.723999ZM51.1075 11.974H53.3215C53.8975 11.974 54.4195 11.866 54.8695 11.632C55.3015 11.416 55.6615 11.128 55.9495 10.732C56.2375 10.372 56.4535 9.922 56.5975 9.418C56.7415 8.914 56.8135 8.392 56.8135 7.816C56.8135 7.276 56.7235 6.754 56.5615 6.25C56.3815 5.782 56.1475 5.35 55.8415 4.99C55.5175 4.63 55.1215 4.342 54.6535 4.126C54.1855 3.928 53.6455 3.82 53.0335 3.82H51.1075V11.974ZM66.1472 5.332C66.4172 5.026 66.7592 4.792 67.1912 4.63C67.6052 4.486 68.0372 4.396 68.5052 4.396H70.8452L70.1972 7.492H68.0372C67.8212 7.492 67.6052 7.546 67.4252 7.636C67.2272 7.744 67.0652 7.87 66.9212 8.032C66.7772 8.212 66.6512 8.41 66.5792 8.626C66.4892 8.86 66.4532 9.112 66.4532 9.364V15.07H62.7092V4.396H65.9132L66.1472 5.332ZM75.9981 4.396V15.07H72.2541V4.396H75.9981ZM75.9981 0.219999V3.316H72.2541V0.219999H75.9981ZM86 15.07H81.752L77.612 4.396H81.464L83.876 10.93L86.288 4.396H90.14L86 15.07ZM94.3112 11.668C94.8512 12.352 95.6252 12.694 96.6692 12.694C97.3892 12.694 98.0012 12.586 98.5232 12.352C99.0272 12.136 99.5132 11.794 99.9812 11.29L102.411 13.09C101.727 13.882 100.935 14.494 100.071 14.944C99.1712 15.376 98.1452 15.61 96.9572 15.61C95.9852 15.61 95.0852 15.466 94.2932 15.214C93.4832 14.926 92.7812 14.548 92.2052 14.044C91.6112 13.54 91.1612 12.928 90.8372 12.19C90.5132 11.47 90.3512 10.66 90.3512 9.742C90.3512 8.86 90.5132 8.05 90.8552 7.312C91.1792 6.592 91.6292 5.98 92.2052 5.458C92.7812 4.954 93.4472 4.558 94.2212 4.27C94.9772 4 95.8052 3.856 96.6872 3.856C97.5872 3.856 98.4152 4 99.1712 4.252C99.9272 4.54 100.575 4.918 101.115 5.422C101.655 5.926 102.069 6.556 102.393 7.276C102.681 8.014 102.843 8.842 102.843 9.76L94.3112 11.668ZM96.8132 6.736C95.9852 6.736 95.3192 6.934 94.7972 7.33C94.2572 7.726 93.9332 8.284 93.7892 8.986L99.0452 7.816C98.7932 7.51 98.4872 7.258 98.1272 7.042C97.7492 6.844 97.3172 6.736 96.8132 6.736Z" fill="url(#paint0_linear_1_301)"/>
<defs>
<linearGradient id="paint0_linear_1_301" x1="-1" y1="8.4762" x2="104" y2="8.47619" gradientUnits="userSpaceOnUse">
<stop stop-color="#E92B25"/>
<stop offset="1" stop-color="#263F81"/>
</linearGradient>
</defs>
</svg>
